<?xml version="1.0" encoding="utf-8" standalone="no"?><!DOCTYPE svg PUBLIC "-//W3C//DTD SVG 20010904//EN" "http://www.w3.org/TR/2001/REC-SVG-20010904/DTD/svg10.dtd"><svg xmlns="http://www.w3.org/2000/svg" width="2317" height="1293" xmlns:xlink="http://www.w3.org/1999/xlink"><source><![CDATA[Browser->API Gateway: request jar names
API Gateway->Lambda list_jars: get server jar names
Lambda list_jars->S3 input: list bucket contents
S3 input-->Lambda list_jars: jar names present in bucket
Lambda list_jars-->API Gateway: jar names
API Gateway-->Browser: jar names
Browser->Browser: select jar name
Browser->API Gateway: schedule selected jar execution
API Gateway->Lambda schedule: schedule selected jar execution jar
Lambda schedule->SQS: queue execution request
SQS-->Lambda schedule: message id
Lambda schedule->EC2: run EC2 instance
EC2-->Lambda schedule: instance id
Lambda schedule-->API Gateway: jar execution scheduled confirmation
API Gateway->Browser: execution scheduled confirmation
EC2->EC2: initialize
EC2->SQS: poll for 1 jar name to execute
SQS-->EC2: jar name to execute
EC2->S3 input: fetch jar to execute
S3 input-->EC2: jar to execute
EC2->EC2: execute jar
note right of EC2: jar is being executed
EC2->S3 output: put execution output
EC2->EC2: terminate
S3 output->>Lambda notify: notify of new output
Lambda notify->Lambda notify: pre-sign URL
Lambda notify->>SNS: notification of completion]]></source><desc></desc><defs><marker viewBox="0 0 5 5" markerWidth="5" markerHeight="5" orient="auto" refX="5" refY="2.5" id="markerArrowBlock"><path d="M 0 0 L 5 2.5 L 0 5 z"></path></marker><marker viewBox="0 0 9.6 16" markerWidth="4" markerHeight="16" orient="auto" refX="9.6" refY="8" id="markerArrowOpen"><path d="M 9.6,8 1.92,16 0,13.7 5.76,8 0,2.286 1.92,0 9.6,8 z"></path></marker></defs><g class="title"></g><g class="actor"><path d="M10,20C56.0,15.8 35.0,24.2 114.0,20.0C115.8,36.1 112.2,50.0 114.0,64.0C58.4,68.2 46.6,59.8 10.0,64.0C8.2,30.6 11.8,53.4 10.0,20.0" stroke="#000000" fill="#ffffff" style="stroke-width: 2;"></path><text x="20" y="47.5" style="font-size: 16px; font-family: danielbd;"><tspan x="20">Browser</tspan></text></g><g class="actor"><path d="M10,1229C41.1,1224.8 47.0,1233.2 114.0,1229.0C115.8,1262.4 112.2,1259.5 114.0,1273.0C90.7,1268.8 57.8,1277.2 10.0,1273.0C8.2,1255.1 11.8,1266.0 10.0,1229.0" stroke="#000000" fill="#ffffff" style="stroke-width: 2;"></path><text x="20" y="1256.5" style="font-size: 16px; font-family: danielbd;"><tspan x="20">Browser</tspan></text></g><path d="M62.0,64.0C108.6,686.6 15.4,250.4 62.0,1229.0" stroke="#000000" fill="none" style="stroke-width: 2;"></path><g class="actor"><path d="M311,20C417.4,14.4 428.6,25.6 451.0,20.0C452.8,49.6 449.2,32.4 451.0,64.0C344.6,58.4 357.4,69.6 311.0,64.0C309.2,33.1 312.8,27.0 311.0,20.0" stroke="#000000" fill="#ffffff" style="stroke-width: 2;"></path><text x="321" y="45" style="font-size: 16px; font-family: danielbd;"><tspan x="321">API Gateway</tspan></text></g><g class="actor"><path d="M311,1229C342.1,1223.4 352.5,1234.6 451.0,1229.0C449.2,1266.0 452.8,1249.5 451.0,1273.0C355.0,1278.6 428.6,1267.4 311.0,1273.0C312.8,1236.0 309.2,1250.4 311.0,1229.0" stroke="#000000" fill="#ffffff" style="stroke-width: 2;"></path><text x="321" y="1254" style="font-size: 16px; font-family: danielbd;"><tspan x="321">API Gateway</tspan></text></g><path d="M381.0,64.0C427.6,860.3 334.4,466.9 381.0,1229.0" stroke="#000000" fill="none" style="stroke-width: 2;"></path><g class="actor"><path d="M499.5,20C646.4,12.7 632.2,27.3 682.5,20.0C680.7,53.4 684.3,30.9 682.5,64.0C638.6,71.3 577.7,56.7 499.5,64.0C501.3,31.7 497.7,57.0 499.5,20.0" stroke="#000000" fill="#ffffff" style="stroke-width: 2;"></path><text x="509.5" y="45" style="font-size: 16px; font-family: danielbd;"><tspan x="509.5">Lambda list_jars</tspan></text></g><g class="actor"><path d="M499.5,1229C553.2,1236.3 528.8,1221.7 682.5,1229.0C684.3,1236.0 680.7,1266.0 682.5,1273.0C544.8,1265.7 591.7,1280.3 499.5,1273.0C497.7,1241.3 501.3,1236.0 499.5,1229.0" stroke="#000000" fill="#ffffff" style="stroke-width: 2;"></path><text x="509.5" y="1254" style="font-size: 16px; font-family: danielbd;"><tspan x="509.5">Lambda list_jars</tspan></text></g><path d="M591.0,64.0C544.4,792.8 637.6,381.3 591.0,1229.0" stroke="#000000" fill="none" style="stroke-width: 2;"></path><g class="actor"><path d="M814.5,20C841.5,23.9 896.0,16.1 911.5,20.0C909.7,32.5 913.3,57.0 911.5,64.0C883.5,60.1 896.0,67.9 814.5,64.0C816.3,33.6 812.7,48.3 814.5,20.0" stroke="#000000" fill="#ffffff" style="stroke-width: 2;"></path><text x="824.5" y="45" style="font-size: 16px; font-family: danielbd;"><tspan x="824.5">S3 input</tspan></text></g><g class="actor"><path d="M814.5,1229C852.3,1225.1 896.0,1232.9 911.5,1229.0C913.3,1262.4 909.7,1263.3 911.5,1273.0C888.2,1269.1 896.0,1276.9 814.5,1273.0C812.7,1239.6 816.3,1259.4 814.5,1229.0" stroke="#000000" fill="#ffffff" style="stroke-width: 2;"></path><text x="824.5" y="1254" style="font-size: 16px; font-family: danielbd;"><tspan x="824.5">S3 input</tspan></text></g><path d="M863.0,64.0C909.6,343.6 816.4,640.1 863.0,1229.0" stroke="#000000" fill="none" style="stroke-width: 2;"></path><g class="actor"><path d="M931.5,20C1021.4,13.0 999.9,27.0 1107.5,20.0C1105.7,40.6 1109.3,30.6 1107.5,64.0C962.3,57.0 1025.8,71.0 931.5,64.0C929.7,48.9 933.3,46.2 931.5,20.0" stroke="#000000" fill="#ffffff" style="stroke-width: 2;"></path><text x="941.5" y="48" style="font-size: 16px; font-family: danielbd;"><tspan x="941.5">Lambda schedule</tspan></text></g><g class="actor"><path d="M931.5,1229C973.7,1222.0 971.9,1236.0 1107.5,1229.0C1109.3,1259.9 1105.7,1266.0 1107.5,1273.0C1028.0,1266.0 1036.2,1280.0 931.5,1273.0C929.7,1250.8 933.3,1241.8 931.5,1229.0" stroke="#000000" fill="#ffffff" style="stroke-width: 2;"></path><text x="941.5" y="1257" style="font-size: 16px; font-family: danielbd;"><tspan x="941.5">Lambda schedule</tspan></text></g><path d="M1019.5,64.0C972.9,878.7 1066.1,1042.6 1019.5,1229.0" stroke="#000000" fill="none" style="stroke-width: 2;"></path><g class="actor"><path d="M1231,20C1270.0,17.6 1254.3,22.4 1290.0,20.0C1288.2,47.6 1291.8,47.5 1290.0,64.0C1275.8,61.6 1266.3,66.4 1231.0,64.0C1229.2,30.6 1232.8,44.1 1231.0,20.0" stroke="#000000" fill="#ffffff" style="stroke-width: 2;"></path><text x="1241" y="47.5" style="font-size: 16px; font-family: danielbd;"><tspan x="1241">SQS</tspan></text></g><g class="actor"><path d="M1231,1229C1245.2,1226.6 1275.0,1231.4 1290.0,1229.0C1288.2,1262.4 1291.8,1262.8 1290.0,1273.0C1240.4,1270.6 1280.6,1275.4 1231.0,1273.0C1232.8,1262.4 1229.2,1266.0 1231.0,1229.0" stroke="#000000" fill="#ffffff" style="stroke-width: 2;"></path><text x="1241" y="1256.5" style="font-size: 16px; font-family: danielbd;"><tspan x="1241">SQS</tspan></text></g><path d="M1260.5,64.0C1213.9,612.2 1307.1,949.4 1260.5,1229.0" stroke="#000000" fill="none" style="stroke-width: 2;"></path><g class="actor"><path d="M1523,20C1533.4,22.6 1545.6,17.4 1588.0,20.0C1586.2,41.5 1589.8,53.4 1588.0,64.0C1559.8,66.6 1555.7,61.4 1523.0,64.0C1521.2,32.0 1524.8,47.2 1523.0,20.0" stroke="#000000" fill="#ffffff" style="stroke-width: 2;"></path><text x="1533" y="47.5" style="font-size: 16px; font-family: danielbd;"><tspan x="1533">EC2</tspan></text></g><g class="actor"><path d="M1523,1229C1540.9,1226.4 1567.0,1231.6 1588.0,1229.0C1586.2,1239.6 1589.8,1244.5 1588.0,1273.0C1546.0,1275.6 1560.4,1270.4 1523.0,1273.0C1524.8,1246.1 1521.2,1239.6 1523.0,1229.0" stroke="#000000" fill="#ffffff" style="stroke-width: 2;"></path><text x="1533" y="1256.5" style="font-size: 16px; font-family: danielbd;"><tspan x="1533">EC2</tspan></text></g><path d="M1555.5,64.0C1602.1,250.4 1508.9,1042.6 1555.5,1229.0" stroke="#000000" fill="none" style="stroke-width: 2;"></path><g class="actor"><path d="M1730,20C1821.6,24.6 1748.4,15.4 1845.0,20.0C1843.2,57.0 1846.8,47.6 1845.0,64.0C1748.4,68.6 1757.6,59.4 1730.0,64.0C1728.2,54.6 1731.8,47.7 1730.0,20.0" stroke="#000000" fill="#ffffff" style="stroke-width: 2;"></path><text x="1740" y="45" style="font-size: 16px; font-family: danielbd;"><tspan x="1740">S3 output</tspan></text></g><g class="actor"><path d="M1730,1229C1826.6,1233.6 1784.4,1224.4 1845.0,1229.0C1843.2,1266.0 1846.8,1260.1 1845.0,1273.0C1757.6,1268.4 1748.4,1277.6 1730.0,1273.0C1728.2,1259.8 1731.8,1239.6 1730.0,1229.0" stroke="#000000" fill="#ffffff" style="stroke-width: 2;"></path><text x="1740" y="1254" style="font-size: 16px; font-family: danielbd;"><tspan x="1740">S3 output</tspan></text></g><path d="M1787.5,64.0C1834.1,250.4 1740.9,960.6 1787.5,1229.0" stroke="#000000" fill="none" style="stroke-width: 2;"></path><g class="actor"><path d="M1928.5,20C2018.7,13.8 1965.9,26.2 2084.5,20.0C2086.3,53.5 2082.7,37.7 2084.5,64.0C2059.5,70.2 2003.1,57.8 1928.5,64.0C1930.3,37.1 1926.7,30.4 1928.5,20.0" stroke="#000000" fill="#ffffff" style="stroke-width: 2;"></path><text x="1938.5" y="45" style="font-size: 16px; font-family: danielbd;"><tspan x="1938.5">Lambda notify</tspan></text></g><g class="actor"><path d="M1928.5,1229C1978.2,1222.8 2001.2,1235.2 2084.5,1229.0C2082.7,1262.4 2086.3,1239.6 2084.5,1273.0C2059.5,1279.2 1975.2,1266.8 1928.5,1273.0C1930.3,1236.0 1926.7,1260.1 1928.5,1229.0" stroke="#000000" fill="#ffffff" style="stroke-width: 2;"></path><text x="1938.5" y="1254" style="font-size: 16px; font-family: danielbd;"><tspan x="1938.5">Lambda notify</tspan></text></g><path d="M2006.5,64.0C1959.9,949.4 2053.1,343.6 2006.5,1229.0" stroke="#000000" fill="none" style="stroke-width: 2;"></path><g class="actor"><path d="M2232,20C2240.8,22.2 2266.2,17.8 2287.0,20.0C2288.8,57.0 2285.2,27.0 2287.0,64.0C2245.2,66.2 2240.8,61.8 2232.0,64.0C2230.2,52.9 2233.8,29.6 2232.0,20.0" stroke="#000000" fill="#ffffff" style="stroke-width: 2;"></path><text x="2242" y="47.5" style="font-size: 16px; font-family: danielbd;"><tspan x="2242">SNS</tspan></text></g><g class="actor"><path d="M2232,1229C2260.2,1231.2 2262.5,1226.8 2287.0,1229.0C2288.8,1266.0 2285.2,1262.4 2287.0,1273.0C2240.8,1270.8 2258.9,1275.2 2232.0,1273.0C2233.8,1262.4 2230.2,1239.6 2232.0,1229.0" stroke="#000000" fill="#ffffff" style="stroke-width: 2;"></path><text x="2242" y="1256.5" style="font-size: 16px; font-family: danielbd;"><tspan x="2242">SNS</tspan></text></g><path d="M2259.5,64.0C2212.9,250.4 2306.1,343.6 2259.5,1229.0" stroke="#000000" fill="none" style="stroke-width: 2;"></path><g class="signal"><text x="140" y="91.5" style="font-size: 16px; font-family: danielbd;"><tspan x="140">request jar names</tspan></text><path d="M62.0,107.0C272.9,119.8 199.6,94.2 381.0,107.0" stroke="#000000" fill="none" style="stroke-width: 2; marker-end: url(&quot;#markerArrowBlock&quot;);"></path></g><g class="signal"><text x="395" y="134.5" style="font-size: 16px; font-family: danielbd;"><tspan x="391">get server jar names</tspan></text><path d="M381.0,150.0C423.9,141.6 555.4,158.4 591.0,150.0" stroke="#000000" fill="none" style="stroke-width: 2; marker-end: url(&quot;#markerArrowBlock&quot;);"></path></g><g class="signal"><text x="640" y="181" style="font-size: 16px; font-family: danielbd;"><tspan x="640">list bucket contents</tspan></text><path d="M591.0,188.0C706.2,177.1 802.4,198.9 863.0,188.0" stroke="#000000" fill="none" style="stroke-width: 2; marker-end: url(&quot;#markerArrowBlock&quot;);"></path></g><g class="signal"><text x="602" y="215.5" style="font-size: 16px; font-family: danielbd;"><tspan x="601">jar names present in bucket</tspan></text><path d="M863.0,231.0C796.4,241.9 740.8,220.1 591.0,231.0" stroke="#000000" fill="none" style="stroke-width: 2; stroke-dasharray: 6, 2; marker-end: url(&quot;#markerArrowBlock&quot;);"></path></g><g class="signal"><text x="443.5" y="258" style="font-size: 16px; font-family: danielbd;"><tspan x="442.5">jar names</tspan></text><path d="M591.0,273.0C453.4,281.4 472.0,264.6 381.0,273.0" stroke="#000000" fill="none" style="stroke-width: 2; stroke-dasharray: 6, 2; marker-end: url(&quot;#markerArrowBlock&quot;);"></path></g><g class="signal"><text x="179" y="300" style="font-size: 16px; font-family: danielbd;"><tspan x="178">jar names</tspan></text><path d="M381.0,315.0C131.7,327.8 138.6,302.2 62.0,315.0" stroke="#000000" fill="none" style="stroke-width: 2; stroke-dasharray: 6, 2; marker-end: url(&quot;#markerArrowBlock&quot;);"></path></g><g class="signal"><text x="87" y="352" style="font-size: 16px; font-family: danielbd;"><tspan x="87">select jar name</tspan></text><path d="M62.0,335.0C71.6,335.8 65.2,334.2 82.0,335.0" stroke="#000000" fill="none" style="stroke-width: 2;"></path><path d="M82.0,335.0C83.2,359.4 80.8,357.0 82.0,364.0" stroke="#000000" fill="none" style="stroke-width: 2;"></path><path d="M82.0,364.0C78.4,364.8 73.9,363.2 62.0,364.0" stroke="#000000" fill="none" style="stroke-width: 2; marker-end: url(&quot;#markerArrowBlock&quot;);"></path></g><g class="signal"><text x="83" y="387" style="font-size: 16px; font-family: danielbd;"><tspan x="83">schedule selected jar execution</tspan></text><path d="M62.0,403.0C173.0,390.2 113.0,415.8 381.0,403.0" stroke="#000000" fill="none" style="stroke-width: 2; marker-end: url(&quot;#markerArrowBlock&quot;);"></path></g><g class="signal"><text x="544.25" y="431" style="font-size: 16px; font-family: danielbd;"><tspan x="544.25">schedule selected jar execution jar</tspan></text><path d="M381.0,447.0C692.6,421.5 483.2,472.5 1019.5,447.0" stroke="#000000" fill="none" style="stroke-width: 2; marker-end: url(&quot;#markerArrowBlock&quot;);"></path></g><g class="signal"><text x="1029.5" y="474.5" style="font-size: 16px; font-family: danielbd;"><tspan x="1029.5">queue execution request</tspan></text><path d="M1019.5,490.0C1110.1,499.6 1163.6,480.4 1260.5,490.0" stroke="#000000" fill="none" style="stroke-width: 2; marker-end: url(&quot;#markerArrowBlock&quot;);"></path></g><g class="signal"><text x="1094" y="518" style="font-size: 16px; font-family: danielbd;"><tspan x="1094">message id</tspan></text><path d="M1260.5,534.0C1096.0,543.6 1092.7,524.4 1019.5,534.0" stroke="#000000" fill="none" style="stroke-width: 2; stroke-dasharray: 6, 2; marker-end: url(&quot;#markerArrowBlock&quot;);"></path></g><g class="signal"><text x="1208.5" y="564.5" style="font-size: 16px; font-family: danielbd;"><tspan x="1208.5">run EC2 instance</tspan></text><path d="M1019.5,571.0C1306.2,592.4 1426.9,549.6 1555.5,571.0" stroke="#000000" fill="none" style="stroke-width: 2; marker-end: url(&quot;#markerArrowBlock&quot;);"></path></g><g class="signal"><text x="1242.5" y="602" style="font-size: 16px; font-family: danielbd;"><tspan x="1242.5">instance id</tspan></text><path d="M1555.5,609.0C1156.9,630.4 1300.6,587.6 1019.5,609.0" stroke="#000000" fill="none" style="stroke-width: 2; stroke-dasharray: 6, 2; marker-end: url(&quot;#markerArrowBlock&quot;);"></path></g><g class="signal"><text x="534.25" y="637" style="font-size: 16px; font-family: danielbd;"><tspan x="533.25">jar execution scheduled confirmation</tspan></text><path d="M1019.5,653.0C483.2,627.5 651.4,678.5 381.0,653.0" stroke="#000000" fill="none" style="stroke-width: 2; stroke-dasharray: 6, 2; marker-end: url(&quot;#markerArrowBlock&quot;);"></path></g><g class="signal"><text x="72" y="684" style="font-size: 16px; font-family: danielbd;"><tspan x="72">execution scheduled confirmation</tspan></text><path d="M381.0,691.0C302.4,703.8 113.0,678.2 62.0,691.0" stroke="#000000" fill="none" style="stroke-width: 2; marker-end: url(&quot;#markerArrowBlock&quot;);"></path></g><g class="signal"><text x="1580.5" y="725" style="font-size: 16px; font-family: danielbd;"><tspan x="1580.5">initialize</tspan></text><path d="M1555.5,711.0C1568.9,710.2 1565.1,711.8 1575.5,711.0" stroke="#000000" fill="none" style="stroke-width: 2;"></path><path d="M1575.5,711.0C1576.4,717.1 1574.6,729.9 1575.5,734.0" stroke="#000000" fill="none" style="stroke-width: 2;"></path><path d="M1575.5,734.0C1563.0,733.2 1567.3,734.8 1555.5,734.0" stroke="#000000" fill="none" style="stroke-width: 2; marker-end: url(&quot;#markerArrowBlock&quot;);"></path></g><g class="signal"><text x="1270.5" y="757" style="font-size: 16px; font-family: danielbd;"><tspan x="1270.5">poll for 1 jar name to execute</tspan></text><path d="M1555.5,773.0C1433.8,784.8 1307.7,761.2 1260.5,773.0" stroke="#000000" fill="none" style="stroke-width: 2; marker-end: url(&quot;#markerArrowBlock&quot;);"></path></g><g class="signal"><text x="1318" y="800.5" style="font-size: 16px; font-family: danielbd;"><tspan x="1317">jar name to execute</tspan></text><path d="M1260.5,816.0C1508.3,804.2 1484.7,827.8 1555.5,816.0" stroke="#000000" fill="none" style="stroke-width: 2; stroke-dasharray: 6, 2; marker-end: url(&quot;#markerArrowBlock&quot;);"></path></g><g class="signal"><text x="1115.75" y="844" style="font-size: 16px; font-family: danielbd;"><tspan x="1115.75">fetch jar to execute</tspan></text><path d="M1555.5,860.0C1135.7,887.7 1387.7,832.3 863.0,860.0" stroke="#000000" fill="none" style="stroke-width: 2; marker-end: url(&quot;#markerArrowBlock&quot;);"></path></g><g class="signal"><text x="1145.25" y="887.5" style="font-size: 16px; font-family: danielbd;"><tspan x="1144.25">jar to execute</tspan></text><path d="M863.0,903.0C1178.4,930.7 1191.2,875.3 1555.5,903.0" stroke="#000000" fill="none" style="stroke-width: 2; stroke-dasharray: 6, 2; marker-end: url(&quot;#markerArrowBlock&quot;);"></path></g><g class="signal"><text x="1580.5" y="939.5" style="font-size: 16px; font-family: danielbd;"><tspan x="1580.5">execute jar</tspan></text><path d="M1555.5,923.0C1560.3,922.2 1558.7,923.8 1575.5,923.0" stroke="#000000" fill="none" style="stroke-width: 2;"></path><path d="M1575.5,923.0C1574.4,931.3 1576.6,944.3 1575.5,951.0" stroke="#000000" fill="none" style="stroke-width: 2;"></path><path d="M1575.5,951.0C1572.3,951.8 1558.7,950.2 1555.5,951.0" stroke="#000000" fill="none" style="stroke-width: 2; marker-end: url(&quot;#markerArrowBlock&quot;);"></path></g><g class="note"><path d="M1575.5,966C1621.6,973.7 1670.2,958.3 1767.5,966.0C1768.9,994.6 1766.1,982.7 1767.5,1000.0C1616.7,1007.7 1674.1,992.3 1575.5,1000.0C1574.1,994.6 1576.9,976.1 1575.5,966.0" stroke="#000000" fill="#ffffff" style="stroke-width: 2;"></path><text x="1581.5" y="986" style="font-size: 16px; font-family: danielbd;"><tspan x="1580.5">jar is being executed</tspan></text></g><g class="signal"><text x="1574" y="1028" style="font-size: 16px; font-family: danielbd;"><tspan x="1574">put execution output</tspan></text><path d="M1555.5,1042.0C1728.9,1051.3 1750.4,1032.7 1787.5,1042.0" stroke="#000000" fill="none" style="stroke-width: 2; marker-end: url(&quot;#markerArrowBlock&quot;);"></path></g><g class="signal"><text x="1580.5" y="1075.5" style="font-size: 16px; font-family: danielbd;"><tspan x="1580.5">terminate</tspan></text><path d="M1555.5,1062.0C1558.7,1062.8 1572.3,1061.2 1575.5,1062.0" stroke="#000000" fill="none" style="stroke-width: 2;"></path><path d="M1575.5,1062.0C1576.4,1067.3 1574.6,1076.2 1575.5,1084.0" stroke="#000000" fill="none" style="stroke-width: 2;"></path><path d="M1575.5,1084.0C1570.7,1083.2 1562.6,1084.8 1555.5,1084.0" stroke="#000000" fill="none" style="stroke-width: 2; marker-end: url(&quot;#markerArrowBlock&quot;);"></path></g><g class="signal"><text x="1797.5" y="1106.5" style="font-size: 16px; font-family: danielbd;"><tspan x="1797.5">notify of new output</tspan></text><path d="M1787.5,1122.0C1891.8,1130.8 1925.9,1113.2 2006.5,1122.0" stroke="#000000" fill="none" style="stroke-width: 2; marker-end: url(&quot;#markerArrowOpen&quot;);"></path></g><g class="signal"><text x="2031.5" y="1159" style="font-size: 16px; font-family: danielbd;"><tspan x="2031.5">pre-sign URL</tspan></text><path d="M2006.5,1142.0C2019.3,1141.2 2015.6,1142.8 2026.5,1142.0" stroke="#000000" fill="none" style="stroke-width: 2;"></path><path d="M2026.5,1142.0C2025.3,1154.1 2027.7,1164.0 2026.5,1171.0" stroke="#000000" fill="none" style="stroke-width: 2;"></path><path d="M2026.5,1171.0C2015.3,1171.8 2021.7,1170.2 2006.5,1171.0" stroke="#000000" fill="none" style="stroke-width: 2; marker-end: url(&quot;#markerArrowBlock&quot;);"></path></g><g class="signal"><text x="2016.5" y="1194.5" style="font-size: 16px; font-family: danielbd;"><tspan x="2016.5">notification of completion</tspan></text><path d="M2006.5,1209.0C2219.0,1219.1 2047.0,1198.9 2259.5,1209.0" stroke="#000000" fill="none" style="stroke-width: 2; marker-end: url(&quot;#markerArrowOpen&quot;);"></path></g></svg>