<?xml version="1.0" encoding="utf-8" standalone="no"?><!DOCTYPE svg PUBLIC "-//W3C//DTD SVG 20010904//EN" "http://www.w3.org/TR/2001/REC-SVG-20010904/DTD/svg10.dtd"><svg xmlns="http://www.w3.org/2000/svg" width="2480" height="1235" xmlns:xlink="http://www.w3.org/1999/xlink"><source><![CDATA[Browser->API Gateway: request server jar names
API Gateway->Lambda get jars: get server jar names
Lambda get jars->S3 input: list bucket contents
S3 input->Lambda get jars: jar names present in bucket
Lambda get jars->API Gateway: server jar names
API Gateway->Browser: server jar names
Browser->Browser: select jar name
Browser->API Gateway: run RTP on selected jar
API Gateway->Lambda put jar: run RTP on selected jar
Lambda put jar->SQS: put RTP execution request
Lambda put jar->EC2: launch EC2 instance
EC2->Lambda put jar: instance launch result
Lambda put jar->SNS: send RTP execution scheduled confirmation
Lambda put jar->API Gateway: RTP execution scheduled confirmation
API Gateway->Browser: RTP execution scheduled confirmation
EC2->EC2: initialize
EC2->SQS: poll for 1 jar name to execute
SQS->EC2: jar name to execute
EC2->S3 input: fetch jar to execute
S3 input->EC2: jar to execute
EC2->EC2: execute RTP test
note right of EC2: test is being executed
EC2->S3 output: put RTP results
EC2->EC2: terminate
S3 output->Lambda notify: post pre-signed URL
Lambda notify->SNS: send test completed notification with pre-signed URL]]></source><desc></desc><defs><marker viewBox="0 0 5 5" markerWidth="5" markerHeight="5" orient="auto" refX="5" refY="2.5" id="markerArrowBlock"><path d="M 0 0 L 5 2.5 L 0 5 z"></path></marker><marker viewBox="0 0 9.6 16" markerWidth="4" markerHeight="16" orient="auto" refX="9.6" refY="8" id="markerArrowOpen"><path d="M 9.6,8 1.92,16 0,13.7 5.76,8 0,2.286 1.92,0 9.6,8 z"></path></marker></defs><g class="title"></g><g class="actor"><path d="M10,20C67.0,15.8 35.0,24.2 114.0,20.0C112.2,53.4 115.8,57.0 114.0,64.0C67.5,59.8 89.0,68.2 10.0,64.0C8.2,57.0 11.8,38.5 10.0,20.0" stroke="#000000" fill="#ffffff" style="stroke-width: 2;"></path><text x="20" y="47.5" style="font-size: 16px; font-family: danielbd;"><tspan x="20">Browser</tspan></text></g><g class="actor"><path d="M10,1171C26.6,1175.2 84.8,1166.8 114.0,1171.0C115.8,1181.6 112.2,1185.5 114.0,1215.0C75.1,1219.2 89.0,1210.8 10.0,1215.0C8.2,1181.6 11.8,1178.0 10.0,1171.0" stroke="#000000" fill="#ffffff" style="stroke-width: 2;"></path><text x="20" y="1198.5" style="font-size: 16px; font-family: danielbd;"><tspan x="20">Browser</tspan></text></g><path d="M62.0,64.0C17.7,727.2 106.3,882.0 62.0,1171.0" stroke="#000000" fill="none" style="stroke-width: 2;"></path><g class="actor"><path d="M357,20C471.6,25.6 458.5,14.4 497.0,20.0C495.2,57.0 498.8,45.0 497.0,64.0C419.7,58.4 417.9,69.6 357.0,64.0C355.2,52.5 358.8,32.8 357.0,20.0" stroke="#000000" fill="#ffffff" style="stroke-width: 2;"></path><text x="367" y="45" style="font-size: 16px; font-family: danielbd;"><tspan x="367">API Gateway</tspan></text></g><g class="actor"><path d="M357,1171C421.9,1165.4 436.4,1176.6 497.0,1171.0C495.2,1203.6 498.8,1204.5 497.0,1215.0C463.4,1220.6 425.2,1209.4 357.0,1215.0C355.2,1202.7 358.8,1178.0 357.0,1171.0" stroke="#000000" fill="#ffffff" style="stroke-width: 2;"></path><text x="367" y="1196" style="font-size: 16px; font-family: danielbd;"><tspan x="367">API Gateway</tspan></text></g><path d="M427.0,64.0C471.3,922.0 382.7,241.1 427.0,1171.0" stroke="#000000" fill="none" style="stroke-width: 2;"></path><g class="actor"><path d="M552.5,20C652.0,13.2 643.6,26.8 721.5,20.0C719.7,41.6 723.3,35.3 721.5,64.0C628.6,70.8 585.0,57.2 552.5,64.0C554.3,50.1 550.7,27.0 552.5,20.0" stroke="#000000" fill="#ffffff" style="stroke-width: 2;"></path><text x="562.5" y="45" style="font-size: 16px; font-family: danielbd;"><tspan x="562.5">Lambda get jars</tspan></text></g><g class="actor"><path d="M552.5,1171C607.9,1177.8 673.2,1164.2 721.5,1171.0C719.7,1181.6 723.3,1186.6 721.5,1215.0C604.2,1221.8 612.4,1208.2 552.5,1215.0C550.7,1191.7 554.3,1181.6 552.5,1171.0" stroke="#000000" fill="#ffffff" style="stroke-width: 2;"></path><text x="562.5" y="1196" style="font-size: 16px; font-family: danielbd;"><tspan x="562.5">Lambda get jars</tspan></text></g><path d="M637.0,64.0C592.7,383.4 681.3,398.2 637.0,1171.0" stroke="#000000" fill="none" style="stroke-width: 2;"></path><g class="actor"><path d="M860.5,20C942.0,23.9 934.2,16.1 957.5,20.0C955.7,30.2 959.3,57.0 957.5,64.0C887.8,60.1 895.5,67.9 860.5,64.0C858.7,53.4 862.3,41.2 860.5,20.0" stroke="#000000" fill="#ffffff" style="stroke-width: 2;"></path><text x="870.5" y="45" style="font-size: 16px; font-family: danielbd;"><tspan x="870.5">S3 input</tspan></text></g><g class="actor"><path d="M860.5,1171C904.9,1174.9 887.5,1167.1 957.5,1171.0C959.3,1181.9 955.7,1208.0 957.5,1215.0C917.9,1211.1 929.6,1218.9 860.5,1215.0C862.3,1183.8 858.7,1198.2 860.5,1171.0" stroke="#000000" fill="#ffffff" style="stroke-width: 2;"></path><text x="870.5" y="1196" style="font-size: 16px; font-family: danielbd;"><tspan x="870.5">S3 input</tspan></text></g><path d="M909.0,64.0C864.7,993.9 953.3,905.3 909.0,1171.0" stroke="#000000" fill="none" style="stroke-width: 2;"></path><g class="actor"><path d="M977.5,20C1017.8,13.3 1004.4,26.7 1145.5,20.0C1147.3,49.7 1143.7,40.7 1145.5,64.0C1090.2,57.3 1017.1,70.7 977.5,64.0C975.7,53.4 979.3,45.6 977.5,20.0" stroke="#000000" fill="#ffffff" style="stroke-width: 2;"></path><text x="987.5" y="45" style="font-size: 16px; font-family: danielbd;"><tspan x="987.5">Lambda put jar</tspan></text></g><g class="actor"><path d="M977.5,1171C1093.8,1164.3 1091.9,1177.7 1145.5,1171.0C1143.7,1181.6 1147.3,1178.0 1145.5,1215.0C1096.9,1208.3 1044.8,1221.7 977.5,1215.0C975.7,1178.0 979.3,1191.7 977.5,1171.0" stroke="#000000" fill="#ffffff" style="stroke-width: 2;"></path><text x="987.5" y="1196" style="font-size: 16px; font-family: danielbd;"><tspan x="987.5">Lambda put jar</tspan></text></g><path d="M1061.5,64.0C1105.8,329.7 1017.2,905.3 1061.5,1171.0" stroke="#000000" fill="none" style="stroke-width: 2;"></path><g class="actor"><path d="M1299,20C1313.2,17.6 1309.6,22.4 1358.0,20.0C1359.8,53.6 1356.2,27.0 1358.0,64.0C1347.5,66.4 1343.8,61.6 1299.0,64.0C1297.2,27.0 1300.8,30.6 1299.0,20.0" stroke="#000000" fill="#ffffff" style="stroke-width: 2;"></path><text x="1309" y="47.5" style="font-size: 16px; font-family: danielbd;"><tspan x="1309">SQS</tspan></text></g><g class="actor"><path d="M1299,1171C1316.8,1168.6 1323.4,1173.4 1358.0,1171.0C1359.8,1204.4 1356.2,1185.9 1358.0,1215.0C1343.8,1217.4 1317.4,1212.6 1299.0,1215.0C1297.2,1194.5 1300.8,1178.0 1299.0,1171.0" stroke="#000000" fill="#ffffff" style="stroke-width: 2;"></path><text x="1309" y="1198.5" style="font-size: 16px; font-family: danielbd;"><tspan x="1309">SQS</tspan></text></g><path d="M1328.5,64.0C1372.8,331.0 1284.2,763.9 1328.5,1171.0" stroke="#000000" fill="none" style="stroke-width: 2;"></path><g class="actor"><path d="M1591,20C1601.4,22.6 1630.9,17.4 1656.0,20.0C1657.8,31.1 1654.2,48.3 1656.0,64.0C1607.0,66.6 1614.3,61.4 1591.0,64.0C1592.8,32.1 1589.2,57.0 1591.0,20.0" stroke="#000000" fill="#ffffff" style="stroke-width: 2;"></path><text x="1601" y="47.5" style="font-size: 16px; font-family: danielbd;"><tspan x="1601">EC2</tspan></text></g><g class="actor"><path d="M1591,1171C1636.6,1168.4 1601.4,1173.6 1656.0,1171.0C1654.2,1178.0 1657.8,1208.0 1656.0,1215.0C1627.5,1212.4 1640.4,1217.6 1591.0,1215.0C1592.8,1181.5 1589.2,1199.8 1591.0,1171.0" stroke="#000000" fill="#ffffff" style="stroke-width: 2;"></path><text x="1601" y="1198.5" style="font-size: 16px; font-family: danielbd;"><tspan x="1601">EC2</tspan></text></g><path d="M1623.5,64.0C1667.8,489.4 1579.2,986.9 1623.5,1171.0" stroke="#000000" fill="none" style="stroke-width: 2;"></path><g class="actor"><path d="M1836,20C1849.2,22.2 1845.8,17.8 1891.0,20.0C1892.8,57.0 1889.2,38.0 1891.0,64.0C1856.3,66.2 1861.3,61.8 1836.0,64.0C1837.8,30.6 1834.2,36.5 1836.0,20.0" stroke="#000000" fill="#ffffff" style="stroke-width: 2;"></path><text x="1846" y="47.5" style="font-size: 16px; font-family: danielbd;"><tspan x="1846">SNS</tspan></text></g><g class="actor"><path d="M1836,1171C1862.3,1168.8 1868.1,1173.2 1891.0,1171.0C1892.8,1204.4 1889.2,1201.3 1891.0,1215.0C1853.0,1217.2 1844.8,1212.8 1836.0,1215.0C1834.2,1185.1 1837.8,1188.2 1836.0,1171.0" stroke="#000000" fill="#ffffff" style="stroke-width: 2;"></path><text x="1846" y="1198.5" style="font-size: 16px; font-family: danielbd;"><tspan x="1846">SNS</tspan></text></g><path d="M1863.5,64.0C1907.8,993.9 1819.2,241.1 1863.5,1171.0" stroke="#000000" fill="none" style="stroke-width: 2;"></path><g class="actor"><path d="M1911,20C1961.5,24.6 1962.4,15.4 2026.0,20.0C2027.8,57.0 2024.2,32.0 2026.0,64.0C1949.3,59.4 1967.9,68.6 1911.0,64.0C1912.8,28.5 1909.2,49.2 1911.0,20.0" stroke="#000000" fill="#ffffff" style="stroke-width: 2;"></path><text x="1921" y="45" style="font-size: 16px; font-family: danielbd;"><tspan x="1921">S3 output</tspan></text></g><g class="actor"><path d="M1911,1171C1981.1,1166.4 1941.4,1175.6 2026.0,1171.0C2027.8,1199.2 2024.2,1192.6 2026.0,1215.0C1976.7,1210.4 1992.1,1219.6 1911.0,1215.0C1909.2,1201.6 1912.8,1191.5 1911.0,1171.0" stroke="#000000" fill="#ffffff" style="stroke-width: 2;"></path><text x="1921" y="1196" style="font-size: 16px; font-family: danielbd;"><tspan x="1921">S3 output</tspan></text></g><path d="M1968.5,64.0C2012.8,241.1 1924.2,329.7 1968.5,1171.0" stroke="#000000" fill="none" style="stroke-width: 2;"></path><g class="actor"><path d="M2294.5,20C2364.1,26.2 2352.8,13.8 2450.5,20.0C2452.3,42.2 2448.7,57.0 2450.5,64.0C2391.5,57.8 2386.6,70.2 2294.5,64.0C2296.3,57.0 2292.7,43.6 2294.5,20.0" stroke="#000000" fill="#ffffff" style="stroke-width: 2;"></path><text x="2304.5" y="45" style="font-size: 16px; font-family: danielbd;"><tspan x="2304.5">Lambda notify</tspan></text></g><g class="actor"><path d="M2294.5,1171C2321.0,1177.2 2363.4,1164.8 2450.5,1171.0C2452.3,1186.9 2448.7,1178.0 2450.5,1215.0C2404.0,1208.8 2356.5,1221.2 2294.5,1215.0C2292.7,1187.9 2296.3,1184.6 2294.5,1171.0" stroke="#000000" fill="#ffffff" style="stroke-width: 2;"></path><text x="2304.5" y="1196" style="font-size: 16px; font-family: danielbd;"><tspan x="2304.5">Lambda notify</tspan></text></g><path d="M2372.5,64.0C2328.2,372.9 2416.8,676.7 2372.5,1171.0" stroke="#000000" fill="none" style="stroke-width: 2;"></path><g class="signal"><text x="130" y="91.5" style="font-size: 16px; font-family: danielbd;"><tspan x="130">request server jar names</tspan></text><path d="M62.0,107.0C224.0,121.6 207.5,92.4 427.0,107.0" stroke="#000000" fill="none" style="stroke-width: 2; marker-end: url(&quot;#markerArrowBlock&quot;);"></path></g><g class="signal"><text x="441" y="134.5" style="font-size: 16px; font-family: danielbd;"><tspan x="437">get server jar names</tspan></text><path d="M427.0,150.0C535.4,141.6 580.3,158.4 637.0,150.0" stroke="#000000" fill="none" style="stroke-width: 2; marker-end: url(&quot;#markerArrowBlock&quot;);"></path></g><g class="signal"><text x="686" y="181" style="font-size: 16px; font-family: danielbd;"><tspan x="686">list bucket contents</tspan></text><path d="M637.0,188.0C744.5,177.1 847.8,198.9 909.0,188.0" stroke="#000000" fill="none" style="stroke-width: 2; marker-end: url(&quot;#markerArrowBlock&quot;);"></path></g><g class="signal"><text x="648" y="215.5" style="font-size: 16px; font-family: danielbd;"><tspan x="647">jar names present in bucket</tspan></text><path d="M909.0,231.0C843.7,220.1 755.3,241.9 637.0,231.0" stroke="#000000" fill="none" style="stroke-width: 2; marker-end: url(&quot;#markerArrowBlock&quot;);"></path></g><g class="signal"><text x="456" y="258" style="font-size: 16px; font-family: danielbd;"><tspan x="456">server jar names</tspan></text><path d="M637.0,273.0C469.7,264.6 525.8,281.4 427.0,273.0" stroke="#000000" fill="none" style="stroke-width: 2; marker-end: url(&quot;#markerArrowBlock&quot;);"></path></g><g class="signal"><text x="168.5" y="300" style="font-size: 16px; font-family: danielbd;"><tspan x="168.5">server jar names</tspan></text><path d="M427.0,315.0C289.1,300.4 185.7,329.6 62.0,315.0" stroke="#000000" fill="none" style="stroke-width: 2; marker-end: url(&quot;#markerArrowBlock&quot;);"></path></g><g class="signal"><text x="87" y="352" style="font-size: 16px; font-family: danielbd;"><tspan x="87">select jar name</tspan></text><path d="M62.0,335.0C65.2,335.8 73.2,334.2 82.0,335.0" stroke="#000000" fill="none" style="stroke-width: 2;"></path><path d="M82.0,335.0C83.2,342.9 80.8,339.6 82.0,364.0" stroke="#000000" fill="none" style="stroke-width: 2;"></path><path d="M82.0,364.0C66.8,363.2 71.2,364.8 62.0,364.0" stroke="#000000" fill="none" style="stroke-width: 2; marker-end: url(&quot;#markerArrowBlock&quot;);"></path></g><g class="signal"><text x="135.5" y="387" style="font-size: 16px; font-family: danielbd;"><tspan x="135.5">run RTP on selected jar</tspan></text><path d="M62.0,403.0C279.2,388.4 203.0,417.6 427.0,403.0" stroke="#000000" fill="none" style="stroke-width: 2; marker-end: url(&quot;#markerArrowBlock&quot;);"></path></g><g class="signal"><text x="635.25" y="431" style="font-size: 16px; font-family: danielbd;"><tspan x="635.25">run RTP on selected jar</tspan></text><path d="M427.0,447.0C797.0,472.4 909.2,421.6 1061.5,447.0" stroke="#000000" fill="none" style="stroke-width: 2; marker-end: url(&quot;#markerArrowBlock&quot;);"></path></g><g class="signal"><text x="1071.5" y="474.5" style="font-size: 16px; font-family: danielbd;"><tspan x="1071.5">put RTP execution request</tspan></text><path d="M1061.5,490.0C1220.5,479.3 1264.4,500.7 1328.5,490.0" stroke="#000000" fill="none" style="stroke-width: 2; marker-end: url(&quot;#markerArrowBlock&quot;);"></path></g><g class="signal"><text x="1251.5" y="521" style="font-size: 16px; font-family: danielbd;"><tspan x="1251.5">launch EC2 instance</tspan></text><path d="M1061.5,528.0C1153.8,505.5 1533.6,550.5 1623.5,528.0" stroke="#000000" fill="none" style="stroke-width: 2; marker-end: url(&quot;#markerArrowBlock&quot;);"></path></g><g class="signal"><text x="1246.5" y="559" style="font-size: 16px; font-family: danielbd;"><tspan x="1246.5">instance launch result</tspan></text><path d="M1623.5,566.0C1493.0,543.5 1353.2,588.5 1061.5,566.0" stroke="#000000" fill="none" style="stroke-width: 2; marker-end: url(&quot;#markerArrowBlock&quot;);"></path></g><g class="signal"><text x="1267" y="597" style="font-size: 16px; font-family: danielbd;"><tspan x="1267">send RTP execution scheduled confirmation</tspan></text><path d="M1061.5,604.0C1671.0,571.9 1735.2,636.1 1863.5,604.0" stroke="#000000" fill="none" style="stroke-width: 2; marker-end: url(&quot;#markerArrowBlock&quot;);"></path></g><g class="signal"><text x="571.75" y="635" style="font-size: 16px; font-family: danielbd;"><tspan x="571.75">RTP execution scheduled confirmation</tspan></text><path d="M1061.5,642.0C732.0,667.4 528.5,616.6 427.0,642.0" stroke="#000000" fill="none" style="stroke-width: 2; marker-end: url(&quot;#markerArrowBlock&quot;);"></path></g><g class="signal"><text x="72" y="673" style="font-size: 16px; font-family: danielbd;"><tspan x="72">RTP execution scheduled confirmation</tspan></text><path d="M427.0,680.0C120.4,694.6 279.0,665.4 62.0,680.0" stroke="#000000" fill="none" style="stroke-width: 2; marker-end: url(&quot;#markerArrowBlock&quot;);"></path></g><g class="signal"><text x="1648.5" y="714" style="font-size: 16px; font-family: danielbd;"><tspan x="1648.5">initialize</tspan></text><path d="M1623.5,700.0C1638.7,700.8 1632.2,699.2 1643.5,700.0" stroke="#000000" fill="none" style="stroke-width: 2;"></path><path d="M1643.5,700.0C1642.6,703.7 1644.4,719.3 1643.5,723.0" stroke="#000000" fill="none" style="stroke-width: 2;"></path><path d="M1643.5,723.0C1628.3,723.8 1626.8,722.2 1623.5,723.0" stroke="#000000" fill="none" style="stroke-width: 2; marker-end: url(&quot;#markerArrowBlock&quot;);"></path></g><g class="signal"><text x="1338.5" y="746" style="font-size: 16px; font-family: danielbd;"><tspan x="1338.5">poll for 1 jar name to execute</tspan></text><path d="M1623.5,762.0C1375.7,773.8 1556.1,750.2 1328.5,762.0" stroke="#000000" fill="none" style="stroke-width: 2; marker-end: url(&quot;#markerArrowBlock&quot;);"></path></g><g class="signal"><text x="1386" y="789.5" style="font-size: 16px; font-family: danielbd;"><tspan x="1385">jar name to execute</tspan></text><path d="M1328.5,805.0C1469.5,816.8 1432.7,793.2 1623.5,805.0" stroke="#000000" fill="none" style="stroke-width: 2; marker-end: url(&quot;#markerArrowBlock&quot;);"></path></g><g class="signal"><text x="1172.75" y="833" style="font-size: 16px; font-family: danielbd;"><tspan x="1172.75">fetch jar to execute</tspan></text><path d="M1623.5,849.0C1134.2,877.6 1245.9,820.4 909.0,849.0" stroke="#000000" fill="none" style="stroke-width: 2; marker-end: url(&quot;#markerArrowBlock&quot;);"></path></g><g class="signal"><text x="1202.25" y="876.5" style="font-size: 16px; font-family: danielbd;"><tspan x="1201.25">jar to execute</tspan></text><path d="M909.0,892.0C1023.3,920.6 1509.2,863.4 1623.5,892.0" stroke="#000000" fill="none" style="stroke-width: 2; marker-end: url(&quot;#markerArrowBlock&quot;);"></path></g><g class="signal"><text x="1648.5" y="925.5" style="font-size: 16px; font-family: danielbd;"><tspan x="1648.5">execute RTP test</tspan></text><path d="M1623.5,912.0C1634.9,912.8 1633.4,911.2 1643.5,912.0" stroke="#000000" fill="none" style="stroke-width: 2;"></path><path d="M1643.5,912.0C1644.4,928.7 1642.6,923.4 1643.5,934.0" stroke="#000000" fill="none" style="stroke-width: 2;"></path><path d="M1643.5,934.0C1634.6,933.2 1631.8,934.8 1623.5,934.0" stroke="#000000" fill="none" style="stroke-width: 2; marker-end: url(&quot;#markerArrowBlock&quot;);"></path></g><g class="note"><path d="M1643.5,949C1772.4,957.0 1675.5,941.0 1843.5,949.0C1842.1,965.1 1844.9,974.9 1843.5,983.0C1779.5,991.0 1811.5,975.0 1643.5,983.0C1642.1,958.0 1644.9,962.0 1643.5,949.0" stroke="#000000" fill="#ffffff" style="stroke-width: 2;"></path><text x="1648.5" y="969" style="font-size: 16px; font-family: danielbd;"><tspan x="1648.5">test is being executed</tspan></text></g><g class="signal"><text x="1722.5" y="1011.5" style="font-size: 16px; font-family: danielbd;"><tspan x="1722.5">put RTP results</tspan></text><path d="M1623.5,1026.0C1755.3,1012.2 1706.3,1039.8 1968.5,1026.0" stroke="#000000" fill="none" style="stroke-width: 2; marker-end: url(&quot;#markerArrowBlock&quot;);"></path></g><g class="signal"><text x="1648.5" y="1059.5" style="font-size: 16px; font-family: danielbd;"><tspan x="1648.5">terminate</tspan></text><path d="M1623.5,1046.0C1628.3,1046.8 1632.2,1045.2 1643.5,1046.0" stroke="#000000" fill="none" style="stroke-width: 2;"></path><path d="M1643.5,1046.0C1642.6,1059.9 1644.4,1060.3 1643.5,1068.0" stroke="#000000" fill="none" style="stroke-width: 2;"></path><path d="M1643.5,1068.0C1631.7,1067.2 1635.4,1068.8 1623.5,1068.0" stroke="#000000" fill="none" style="stroke-width: 2; marker-end: url(&quot;#markerArrowBlock&quot;);"></path></g><g class="signal"><text x="2075" y="1091" style="font-size: 16px; font-family: danielbd;"><tspan x="2075">post pre-signed URL</tspan></text><path d="M1968.5,1107.0C2275.5,1090.8 2065.5,1123.2 2372.5,1107.0" stroke="#000000" fill="none" style="stroke-width: 2; marker-end: url(&quot;#markerArrowBlock&quot;);"></path></g><g class="signal"><text x="1873.5" y="1135" style="font-size: 16px; font-family: danielbd;"><tspan x="1873.5">send test completed notification with pre-signed URL</tspan></text><path d="M2372.5,1151.0C1944.9,1171.4 2149.1,1130.6 1863.5,1151.0" stroke="#000000" fill="none" style="stroke-width: 2; marker-end: url(&quot;#markerArrowBlock&quot;);"></path></g></svg>